<svg xmlns="http://www.w3.org/2000/svg" xmlns:xlink="http://www.w3.org/1999/xlink" xmlns:xodm="http://www.corel.com/coreldraw/odm/2003" width="7in" height="2in" version="1.1" xml:space="preserve" style="shape-rendering:geometricPrecision;text-rendering:geometricPrecision;image-rendering:optimizeQuality;fill-rule:evenodd;clip-rule:evenodd" viewBox="0 0 7000 2000"><defs><style type="text/css">.fil0{fill:#4c7aed}.fil2{fill:#ffd000}.fil1{fill:#fff}</style></defs><g id="Layer_x0020_1"><metadata id="CorelCorpID_0Corel-Layer"/><g id="_437867520"><path d="M296 652l312 6c0,166 -133,481 -157,661 37,-27 191,-192 307,-274 83,-58 108,-40 141,-158 20,-74 39,-161 66,-226l310 -7c34,-57 53,-150 61,-225l-990 0 -50 223 0 0z" class="fil0"/><path d="M2642 1246l248 -1c-43,-91 -70,81 -74,-254 125,19 132,165 224,229 70,49 316,27 416,27 -35,-65 -13,5 -66,-70l26 -111c136,0 207,-27 229,89 19,101 -2,17 -45,92l245 0c-55,-101 -8,91 -159,-283l-139 -311c-156,100 -143,713 -383,537 -43,-31 -130,-142 -160,-199 71,-48 146,-78 127,-197 -28,-177 -328,-148 -505,-131 56,52 59,2 76,91l8 369c-8,141 -35,47 -68,123l0 0zm789 -218l159 0 -85 -216 -74 216zm-617 -85c180,48 226,-59 175,-215 -51,-28 -91,-49 -172,-20l-3 235 0 0z" class="fil1"/><path d="M6276 668c-324,135 -189,698 214,573 327,-102 191,-741 -214,-573zm42 40c-195,104 -87,610 147,490 164,-85 93,-618 -147,-490z" class="fil1"/><path d="M422 1476c220,0 339,38 418,-70 90,-123 123,-164 240,-262 290,-243 602,-240 707,-304 -277,-13 -616,51 -829,163 -141,75 -489,370 -536,473z" class="fil2"/><path d="M4409 1244c71,4 437,26 484,-23 32,-33 38,-91 10,-128 -70,47 -29,66 -112,102 -23,9 -178,55 -200,-39l-8 -193c206,0 121,1 211,67l-2 -166c-102,57 -2,62 -210,62l-1 -230c52,-2 144,-9 185,6 77,27 29,54 108,91l-12 -128 -468 -9c82,103 74,-57 81,298 6,388 -19,191 -66,290l0 0z" class="fil1"/><path d="M4089 1247c49,-82 77,-203 115,-305 144,-389 73,-165 162,-285l-222 1c76,83 92,47 43,192 -26,76 -42,168 -83,230 -46,-62 -74,-150 -109,-221 -14,-29 -48,-87 -49,-117 -5,-81 8,-25 62,-82l-267 3c201,165 212,552 348,584l0 0z" class="fil1"/><path d="M6002 1050c-75,56 -83,180 -221,161 -104,-14 -154,-125 -164,-241 -10,-110 15,-237 113,-269 96,-31 163,35 203,77 65,68 -13,26 70,52 -17,-316 -537,-227 -508,161 28,369 629,298 507,59l0 0z" class="fil1"/><path d="M2048 800c54,-30 53,-98 127,-103 121,-7 88,102 92,294 2,104 17,151 -18,208l-17 20c-10,12 -18,20 -23,26l-2 2 0 0 241 0c-41,-88 -70,46 -72,-237l1 -258c33,-157 197,39 204,45 25,-46 9,-77 -7,-133 -137,-17 -299,-7 -439,-7 -101,0 -104,32 -87,143l0 0z" class="fil1"/><path d="M5032 706l7 452c-27,104 -21,5 -62,89l453 -3c13,-62 41,-102 12,-151 -48,39 -83,150 -281,105l-17 -487c55,-35 39,-4 74,-53l-258 -1c36,51 15,19 72,49l0 0z" class="fil1"/></g></g></svg>